<svg xmlns="http://www.w3.org/2000/svg" viewBox="0 0 200 200" fill="none" id="nexvora-falcon">
  <!-- Nexvora Geometric Falcon — Low-poly, 12 facets -->
  <!-- Body core -->
  <polygon points="100,40 130,80 100,100 70,80" fill="#0D9488" opacity="0.95"/>
  <polygon points="100,100 130,80 145,120 100,130" fill="#0F2B4C" opacity="0.9"/>
  <polygon points="100,100 70,80 55,120 100,130" fill="#1E3A5F" opacity="0.85"/>
  <!-- Head -->
  <polygon points="100,40 120,58 100,70 80,58" fill="#14B8A6" opacity="0.9"/>
  <!-- Beak (gold accent) -->
  <polygon points="100,40 108,32 100,50" fill="#C9A84C" opacity="0.95"/>
  <!-- Eye -->
  <circle cx="108" cy="52" r="3.5" fill="#FAF8F5" opacity="0.9"/>
  <circle cx="109" cy="52" r="1.8" fill="#0F2B4C"/>
  <!-- Left wing — 3 facets -->
  <polygon points="70,80 55,120 30,105 45,75" fill="#0D9488" opacity="0.75"/>
  <polygon points="55,120 30,105 20,145 50,145" fill="#0F2B4C" opacity="0.65"/>
  <polygon points="45,75 30,105 18,85 35,62" fill="#14B8A6" opacity="0.6"/>
  <!-- Right wing — 3 facets -->
  <polygon points="130,80 145,120 170,105 155,75" fill="#0D9488" opacity="0.75"/>
  <polygon points="145,120 170,105 180,145 150,145" fill="#0F2B4C" opacity="0.65"/>
  <polygon points="155,75 170,105 182,85 165,62" fill="#14B8A6" opacity="0.6"/>
  <!-- Tail — 2 facets -->
  <polygon points="100,130 55,120 75,165 100,155" fill="#0F2B4C" opacity="0.8"/>
  <polygon points="100,130 145,120 125,165 100,155" fill="#1E3A5F" opacity="0.75"/>
  <!-- Tail tip (gold) -->
  <polygon points="100,155 75,165 100,180 125,165" fill="#C9A84C" opacity="0.7"/>
  <!-- Wing tips highlight -->
  <polygon points="20,145 50,145 38,162" fill="#44caa2" opacity="0.5"/>
  <polygon points="180,145 150,145 162,162" fill="#44caa2" opacity="0.5"/>
  <!-- Node dots at key vertices — like logo language -->
  <circle cx="100" cy="40" r="3" fill="#C9A84C" opacity="0.9"/>
  <circle cx="100" cy="130" r="3" fill="#44caa2" opacity="0.9"/>
  <circle cx="55" cy="120" r="2.5" fill="#44caa2" opacity="0.8"/>
  <circle cx="145" cy="120" r="2.5" fill="#44caa2" opacity="0.8"/>
  <circle cx="30" cy="105" r="2" fill="#63b3ed" opacity="0.7"/>
  <circle cx="170" cy="105" r="2" fill="#63b3ed" opacity="0.7"/>
</svg>
